<svg version="1.1" viewBox="0.0 0.0 163.1758530183727 100.0" fill="none" stroke="none" stroke-linecap="square" stroke-miterlimit="10" xmlns:xlink="http://www.w3.org/1999/xlink" xmlns="http://www.w3.org/2000/svg"><clipPath id="p.0"><path d="m0 0l163.17586 0l0 100.0l-163.17586 0l0 -100.0z" clip-rule="nonzero"/></clipPath><g clip-path="url(#p.0)"><path fill="#000000" fill-opacity="0.0" d="m0 0l163.17586 0l0 100.0l-163.17586 0z" fill-rule="evenodd"/><path fill="#000000" fill-opacity="0.0" d="m-5.6758533 19.979002l168.8504 0l0 58.173225l-168.8504 0z" fill-rule="evenodd"/><path fill="#ff0000" d="m19.792896 31.449003q1.03125 0 1.828125 0.5625019q0.8125 0.546875 0.8125 1.46875q0 1.296875 -0.84375 2.109375q-0.828125 0.8125 -2.28125 0.8125q-1.84375 0 -2.40625 -0.171875q0.171875 0.046875 -0.34375 3.109375q-0.57812405 3.421875 -0.70312405 4.203125l-0.65625 4.171875q-0.703125 4.703125 -1.140625 7.1875q0.015625 -0.09375 1.1875 -0.09375q1.906249 0 2.734374 0.609375q0.828125 0.609375 0.828125 1.828125q0 1.140625 -0.859375 1.890625q-0.859375 0.75 -2.281249 0.75q-0.828125 0 -2.5625 -0.0625q-1.59375 -0.0625 -2.078125 -0.0625q-1.96875 0 -4.3281255 0.359375q-1.109375 0.15625 -1.59375 0.15625q-0.9375 0 -1.6406248 -0.5625q-0.6875 -0.546875 -0.6875 -1.59375q0 -1.515625 1.2499998 -2.296875q1.265625 -0.796875 3.296875 -0.828125l0.9375005 -0.015625l0.015625 -0.15625q0.796875 -5.140625 1.140625 -7.25l0.703125 -4.1875q0.625 -3.703125 1.046875 -6.875l-1.9375 0.015625q-1.4062505 0 -2.0468755 -0.546875q-0.625 -0.546875 -0.625 -1.515625q0 -2.796877 3.7656255 -2.984377q1.484375 -0.0625 3.609375 -0.0625l5.859374 0.03125zm3.8400269 28.406252q-1.671875 0 -2.28125 -1.546875q-0.59375 -1.546875 -0.59375 -4.484375q0 -4.25 1.21875 -8.109375q0.375 -1.140625 1.203125 -1.6875q0.828125 -0.546875 2.203125 -0.546875q0.828125 0 1.3125 0.296875q0.5 0.296875 0.5 1.125q0 0.609375 -0.5 2.453125q-0.3125 1.265625 -0.5 2.203125q-0.1875 0.9375 -0.96875 2.25q0.484375 -3.078125 1.859375 -4.890625q1.390625 -1.8125 2.78125 -2.625q1.390625 -0.8125 2.625 -0.8125q2.734375 0 2.734375 2.734375q0 1.3125 -0.71875 4.65625q-0.59375 2.71875 -0.59375 3.53125q0 0.625 0.28125 0.625q0.390625 0 1.15625 -0.671875q0.765625 -0.6875 2.203125 -2.421875q0.59375 -0.6875 1.375 -0.6875q0.765625 0 1.15625 0.625q0.390625 0.609375 0.390625 1.46875q0 1.53125 -0.765625 2.40625q-1.421875 1.765625 -3.140625 2.9375q-1.703125 1.171875 -3.921875 1.171875q-1.921875 0 -2.9375 -1.140625q-1.015625 -1.15625 -1.015625 -3.1875q0 -0.96875 0.46875 -3.328125q0.40625 -1.953125 0.40625 -2.65625q0.296875 -0.15625 0.296875 0.140625q-0.078125 0 -0.71875 0.90625q-0.625 0.90625 -1.390625 2.609375q-0.75 1.703125 -1.21875 3.59375q-0.375 1.671875 -1.0 2.375q-0.625 0.6875 -1.90625 0.6875zm27.87204 -8.609375q0.765625 0 1.15625 0.625q0.390625 0.609375 0.390625 1.46875q0 1.53125 -0.765625 2.40625q-1.421875 1.765625 -3.1875 2.9375q-1.75 1.171875 -4.0625 1.171875q-7.1875 0 -7.1875 -9.84375q0 -1.421875 0.046875 -2.1875l-0.546875 0q-1.234375 0 -1.765625 -0.546875q-0.515625 -0.546875 -0.515625 -1.578125q0 -2.453125 2.09375 -2.453125l1.265625 0q0.46875 -3.03125 1.625 -6.03125q1.15625 -3.015625 2.875 -4.890625q1.734375 -1.8750019 3.84375 -1.8750019q1.703125 0 2.609375 1.421875q0.921875 1.4218769 0.921875 3.390627q0 5.265625 -3.078125 7.984375l1.84375 0q0.78125 0 1.203125 0.421875q0.421875 0.421875 0.421875 1.296875q0 2.859375 -4.28125 2.859375l-3.28125 0q-0.03125 0.96875 -0.03125 1.84375q0 3.15625 0.640625 4.265625q0.640625 1.09375 1.96875 1.09375q1.140625 0 2.078125 -0.734375q0.953125 -0.75 2.34375 -2.359375q0.59375 -0.6875 1.375 -0.6875zm-5.609375 -16.40625q-0.0625 0 -0.546875 0.984375q-0.484375 0.984375 -1.015625 3.0625q-0.515625 2.078125 -0.625 2.921875q0.484375 -0.421875 1.359375 -2.3125q0.875 -1.90625 0.875 -3.421875q0 -1.234375 -0.046875 -1.234375zm18.185398 16.40625q0.765625 0 1.15625 0.625q0.390625 0.609375 0.390625 1.46875q0 1.53125 -0.765625 2.40625q-1.2656288 1.546875 -3.5468788 2.828125q-2.28125 1.28125 -4.921875 1.28125q-3.625 0 -5.671875 -2.0q-2.046875 -2.015625 -2.046875 -5.46875q0 -2.359375 0.984375 -4.40625q1.0 -2.046875 2.796875 -3.265625q1.8125 -1.234375 4.09375 -1.234375q2.125 0 3.4375 1.296875q1.328125 1.28125 1.328125 3.453125q0 2.46875 -1.75 4.21875q-1.75 1.75 -4.875 2.515625q0.203125 0.375 2.0625 0.375q1.265625 0 2.96875 -0.9375q1.71875 -0.9375 2.984375 -2.46875q0.59375 -0.6875 1.3750038 -0.6875zm-8.062504 -3.328125q-0.8125 0 -1.5 1.140625q-0.671875 1.140625 -0.671875 2.90625l-0.609375 0q1.546875 -0.984375 2.453125 -1.734375q0.90625 -0.75 0.90625 -1.625q0 -0.359375 -0.15625 -0.515625q-0.15625 -0.171875 -0.421875 -0.171875zm18.482273 3.328125q0.78125 0 1.171875 0.625q0.390625 0.609375 0.390625 1.46875q0 1.53125 -0.765625 2.40625q-1.421875 1.765625 -3.171875 2.9375q-1.734375 1.171875 -3.984375 1.171875q-3.203125 0 -4.703129 -2.796875q-1.484375 -2.8125 -1.484375 -7.046875q0 -3.953125 1.015625 -9.03125q1.0312538 -5.078125 3.1093788 -8.875q2.09375 -3.796877 5.203125 -3.796877q1.890625 0 2.921875 1.65625q1.03125 1.65625 1.03125 4.500002q0 3.9375 -2.15625 9.0625q-2.15625 5.125 -5.65625 9.890625q0.140625 0.84375 0.484375 1.234375q0.359375 0.375 0.90625 0.375q1.09375 0 1.96875 -0.65625q0.875 -0.671875 2.359375 -2.4375q0.59375 -0.6875 1.359375 -0.6875zm-3.921875 -18.453125q-0.28125 0 -1.125 2.421875q-0.828125 2.40625 -1.53125 6.28125q-0.6875 3.875 -0.71875 5.015625q0.984375 -1.609375 2.296875 -5.28125q1.3125 -3.671875 1.3125 -6.671875q0 -1.765625 -0.234375 -1.765625zm14.353897 18.453125q0.78125 0 1.171875 0.625q0.390625 0.609375 0.390625 1.46875q0 1.53125 -0.765625 2.40625q-1.421875 1.765625 -3.171875 2.9375q-1.734375 1.171875 -3.984375 1.171875q-3.203125 0 -4.703125 -2.796875q-1.484375 -2.8125 -1.484375 -7.046875q0 -3.953125 1.015625 -9.03125q1.03125 -5.078125 3.109375 -8.875q2.09375 -3.796877 5.203125 -3.796877q1.890625 0 2.921875 1.65625q1.03125 1.65625 1.03125 4.500002q0 3.9375 -2.15625 9.0625q-2.15625 5.125 -5.65625 9.890625q0.140625 0.84375 0.484375 1.234375q0.359375 0.375 0.90625 0.375q1.09375 0 1.96875 -0.65625q0.875 -0.671875 2.359375 -2.4375q0.59375 -0.6875 1.359375 -0.6875zm-3.921875 -18.453125q-0.28125 0 -1.125 2.421875q-0.828125 2.40625 -1.53125 6.28125q-0.6875 3.875 -0.71875 5.015625q0.984375 -1.609375 2.296875 -5.28125q1.3125 -3.671875 1.3125 -6.671875q0 -1.765625 -0.234375 -1.765625zm16.510147 18.453125q0.765625 0 1.15625 0.625q0.390625 0.609375 0.390625 1.46875q0 1.53125 -0.765625 2.40625q-1.265625 1.546875 -3.546875 2.828125q-2.28125 1.28125 -4.921875 1.28125q-3.625 0 -5.671875 -2.0q-2.046875 -2.015625 -2.046875 -5.46875q0 -2.359375 0.984375 -4.40625q1.0 -2.046875 2.796875 -3.265625q1.8125 -1.234375 4.09375 -1.234375q2.125 0 3.4375 1.296875q1.328125 1.28125 1.328125 3.453125q0 2.46875 -1.75 4.21875q-1.75 1.75 -4.875 2.515625q0.203125 0.375 2.0625 0.375q1.265625 0 2.96875 -0.9375q1.71875 -0.9375 2.984375 -2.46875q0.59375 -0.6875 1.375 -0.6875zm-8.0625 -3.328125q-0.8125 0 -1.5 1.140625q-0.671875 1.140625 -0.671875 2.90625l-0.609375 0q1.546875 -0.984375 2.453125 -1.734375q0.90625 -0.75 0.90625 -1.625q0 -0.359375 -0.15625 -0.515625q-0.15625 -0.171875 -0.421875 -0.171875zm22.58789 3.390625q0.796875 0 1.171875 0.65625q0.375 0.640625 0.375 1.421875q0 0.890625 -0.296875 1.453125q-0.296875 0.5625 -0.921875 0.96875q-2.734375 1.859375 -4.015625 2.75l-1.828125 1.234375q-1.1875 6.4375 -3.265625 10.453125q-2.078125 4.015625 -5.53125 4.015625q-1.890625 0 -3.109375 -1.203125q-1.21875 -1.1875 -1.21875 -3.109375q0 -2.46875 1.875 -5.203125q1.875 -2.734375 6.6875 -6.453125l0.4375 0.09375q0.265625 0.390625 -0.765625 0.9375q-1.015625 0.53125 -2.046875 0.53125q-2.296875 0 -3.65625 -1.640625q-1.34375 -1.65625 -1.34375 -4.234375q0 -2.703125 1.25 -5.125q1.25 -2.4375 3.375 -3.9375q2.125 -1.5 4.53125 -1.5q1.015625 0 1.40625 0.4375q0.390625 0.4375 0.421875 0.703125q0.0625 -0.03125 0.9375 -0.03125q1.015625 0 1.5625 0.40625q0.5625 0.40625 0.5625 1.4375q0 0.4375 -0.03125 0.703125q-0.125 0.984375 -0.8125 5.03125q-0.140625 0.78125 -0.28125 1.6875q-0.125 0.890625 -0.375 0.859375q1.515625 -1.484375 3.8125 -2.96875q0.5625 -0.375 1.09375 -0.375zm-11.296875 4.0q0.40625 0 0.921875 -0.6875q0.53125 -0.703125 0.796875 -2.21875l0.875 -4.6875q-0.265625 0.015625 -1.234375 0.859375q-0.96875 0.84375 -1.59375 2.3125q-0.609375 1.46875 -0.609375 3.125q0 0.765625 0.21875 1.03125q0.234375 0.265625 0.625 0.265625zm-2.65625 14.53125q0.40625 0 1.296875 -1.71875q0.890625 -1.703125 1.375 -3.875q-0.890625 0.765625 -1.90625 2.328125q-1.0 1.578125 -1.0 2.671875q0 0.375 0.0625 0.484375q0.0625 0.109375 0.171875 0.109375zm27.171783 -18.59375q0.765625 0 1.15625 0.625q0.390625 0.609375 0.390625 1.46875q0 1.53125 -0.765625 2.40625q-1.265625 1.546875 -3.546875 2.828125q-2.28125 1.28125 -4.921875 1.28125q-3.625 0 -5.671875 -2.0q-2.046875 -2.015625 -2.046875 -5.46875q0 -2.359375 0.984375 -4.40625q1.0 -2.046875 2.796875 -3.265625q1.8125 -1.234375 4.09375 -1.234375q2.125 0 3.4375 1.296875q1.328125 1.28125 1.328125 3.453125q0 2.46875 -1.75 4.21875q-1.75 1.75 -4.875 2.515625q0.203125 0.375 2.0625 0.375q1.265625 0 2.96875 -0.9375q1.71875 -0.9375 2.984375 -2.46875q0.59375 -0.6875 1.375 -0.6875zm-8.0625 -3.328125q-0.8125 0 -1.5 1.140625q-0.671875 1.140625 -0.671875 2.90625l-0.609375 0q1.546875 -0.984375 2.453125 -1.734375q0.90625 -0.75 0.90625 -1.625q0 -0.359375 -0.15625 -0.515625q-0.15625 -0.171875 -0.421875 -0.171875zm8.638519 11.9375q-1.671875 0 -2.28125 -1.546875q-0.59375 -1.546875 -0.59375 -4.484375q0 -4.25 1.21875 -8.109375q0.375 -1.140625 1.203125 -1.6875q0.828125 -0.546875 2.203125 -0.546875q0.8281174 0 1.3124924 0.296875q0.5 0.296875 0.5 1.125q0 0.609375 -0.5 2.453125q-0.3125 1.265625 -0.5 2.203125q-0.1875 0.9375 -0.9687424 2.25q0.484375 -3.078125 1.8593674 -4.890625q1.390625 -1.8125 2.78125 -2.625q1.390625 -0.8125 2.625 -0.8125q2.734375 0 2.734375 2.734375q0 0.46875 -0.296875 2.140625q-0.25 1.21875 -0.25 1.46875q0 0.46875 0.15625 0.46875q0.625 0 1.828125 -1.21875q0.625 -0.609375 1.328125 -0.609375q0.78125 0 1.171875 0.59375q0.390625 0.59375 0.390625 1.40625q0 1.453125 -0.828125 2.3125q-0.96875 1.0 -2.28125 1.71875q-1.3125 0.71875 -2.828125 0.71875q-1.96875 0 -3.046875 -1.046875q-1.0625 -1.046875 -1.0625 -2.8125q0 -0.53125 0.09375 -1.046875q0.0625 -0.578125 0.0625 -0.765625q0.296875 -0.15625 0.296875 0.140625q-0.15625 0 -0.8125 0.90625q-0.65625 0.90625 -1.40625 2.609375q-0.734375 1.703125 -1.203125 3.59375q-0.375 1.671875 -0.9999924 2.375q-0.625 0.6875 -1.90625 0.6875zm23.731895 -7.640625q0.78125 0 1.171875 0.625q0.390625 0.609375 0.390625 1.46875q0 1.359375 -0.65625 2.34375q-0.984375 1.515625 -2.59375 2.359375q-1.609375 0.84375 -3.78125 0.84375q-3.34375 0 -5.234375 -2.03125q-1.875 -2.046875 -1.875 -5.4375q0 -2.359375 0.984375 -4.40625q1.0 -2.046875 2.796875 -3.265625q1.8125 -1.234375 4.09375 -1.234375q2.125 0 3.4375 1.296875q1.328125 1.28125 1.328125 3.453125q0 2.46875 -1.75 4.21875q-1.75 1.75 -4.921875 2.515625q0.1875 0.375 1.625 0.375q1.109375 0 1.828125 -0.515625q0.734375 -0.515625 1.78125 -1.890625q0.59375 -0.71875 1.375 -0.71875zm-5.234375 -4.296875q-0.8125 0 -1.5 1.140625q-0.671875 1.140625 -0.671875 2.90625l-0.609375 0q1.546875 -0.984375 2.453125 -1.734375q0.90625 -0.75 0.90625 -1.625q0 -0.359375 -0.15625 -0.515625q-0.15625 -0.171875 -0.421875 -0.171875z" fill-rule="nonzero"/></g></svg>